<?xml version="1.0" encoding="UTF-8" standalone="no"?><!-- Generator: Gravit.io --><svg xmlns="http://www.w3.org/2000/svg" xmlns:xlink="http://www.w3.org/1999/xlink" style="isolation:isolate" viewBox="0 0 2000 1000" width="2000pt" height="1000pt"><defs><clipPath id="_clipPath_SDj2UJH77OtqUm2Fy7dsbbhvc4aHLnEc"><rect width="2000" height="1000"/></clipPath></defs><g clip-path="url(#_clipPath_SDj2UJH77OtqUm2Fy7dsbbhvc4aHLnEc)"><rect width="2000" height="1000" style="fill:rgb(225,225,225)"/><path d=" M 288.241 351.13 L 531.286 272.463 C 538.075 270.265 549.043 270.433 555.762 272.836 L 788.07 355.929 C 794.789 358.332 799.874 366.065 799.419 373.187 L 785.554 589.814 C 785.099 596.936 779.562 605.34 773.199 608.57 L 540.248 726.81 C 533.884 730.04 523.683 729.796 517.481 726.267 L 301.4 603.294 C 295.198 599.765 289.822 591.115 289.403 583.991 L 276.699 368.019 C 276.28 360.895 281.452 353.327 288.241 351.13 Z " fill="rgb(85,85,85)"/><path d=" M 300.402 374.317 L 312.153 579.363 C 312.308 582.077 314.344 585.387 316.696 586.75 L 524.901 707.415 C 527.253 708.778 531.133 708.889 533.559 707.663 L 758.735 593.89 C 761.161 592.664 763.251 589.465 763.397 586.751 L 774.563 380.475 C 774.71 377.76 772.758 374.796 770.205 373.86 L 547.976 292.323 C 545.424 291.386 541.252 291.306 538.666 292.144 L 304.806 367.882 C 302.22 368.719 300.247 371.603 300.402 374.317 Z " fill="rgb(206,206,206)"/><path d=" M 305.921 376.041 L 517.848 465.618 C 524.108 468.264 534.365 468.496 540.739 466.136 L 768.823 381.679 C 775.197 379.319 775.203 375.47 768.837 373.089 L 554.886 293.056 C 548.52 290.675 538.115 290.479 531.664 292.618 L 306.267 367.37 C 299.816 369.509 299.661 373.394 305.921 376.041 Z " fill="rgb(198,198,198)"/><linearGradient id="_lgradient_5" x1="-0.0022421524663677195" y1="0.051188299817184646" x2="0.5964125560538116" y2="1.0804387568555756" gradientTransform="matrix(274.605,0,0,336.791,422.646,314.601)" gradientUnits="userSpaceOnUse"><stop offset="0%" stop-opacity="1" style="stop-color:rgb(0,206,143)"/><stop offset="100%" stop-opacity="1" style="stop-color:rgb(0,206,143)"/></linearGradient><path d=" M 422.646 328.763 L 465.129 314.601 L 683.533 402.079 C 691.104 405.111 696.976 414.189 696.637 422.337 L 688.015 629.843 L 644.916 651.392 L 651.249 438.352 C 651.492 430.2 645.571 421.049 638.035 417.929 L 422.646 328.763 Z " fill="url(#_lgradient_5)"/><path d=" M 358.612 503.007 L 389.398 518.4 L 391.86 585.512 L 429.419 606.446 L 427.571 547.954 L 417.104 531.33 L 460.204 554.727 L 405.406 465.449 L 358.612 503.007 Z " fill="rgb(0,206,143)"/><text transform="matrix(1,0,0,1,862,568.747)" style="font-family:'Viga';font-weight:400;font-size:250px;font-style:normal;fill:#00ce8f;stroke:none;">Elevate</text></g></svg>